# xmcd
#
# Track frame offsets:
#	150
#	23570
#	42045
#	68415
#	84765
#
# Disc length: 1531 seconds
# Revision: 0
# Processed by: cddbd v1.5.2PL0 Copyright (c) Steve Scherf et al.
# Submitted via: dBpowerAMP V12.0
#
DISCID=2605f905
DTITLE=The Foggy Swamp Blues Band - Demo
DYEAR=2015
DGENRE=Blues
TTITLE0=Killing Floor
TTITLE1=Foggy Swamp
TTITLE2=Hoochie Coochie Man
TTITLE3=Matchbox
TTITLE4=Steamroller
EXTD=
EXTT0=
EXTT1=
EXTT2=
EXTT3=
EXTT4=
PLAYORDER=
